# xmcd
#
# Track frame offsets:
#	187
#	24862
#	51872
#	73567
#	94940
#	125860
#	146510
#	182795
#	211345
#	230302
#
# Disc length: 3408 seconds
#
# Revision: 1
# Processed by: cddbd v1.4PL0 Copyright (c) Steve Scherf et al.
# Submitted via: EasyCDDAExtractor 5.0.7
#
DISCID=8c0d4e0a
DTITLE=Vu Khanh - Gui Toi Em
DYEAR=1900
DGENRE=
TTITLE0=Tinh Khuc Chien Truong
TTITLE1=Nuoc Non Ngan Dam Ra Di
TTITLE2=Vien Du
TTITLE3=1954 Cha Bo Que 1975 Con Bo Nuoc
TTITLE4=Doi Mat Nguoi Son Tay
TTITLE5=Noi Long Nguoi Di
TTITLE6=Lien Khuc
TTITLE7=Ho Nhu
TTITLE8=Ky Vat Cho Em
TTITLE9=Ai Tro Ve Xu Viet
EXTD=
EXTT0=
EXTT1=
EXTT2=
EXTT3=
EXTT4=
EXTT5=
EXTT6=
EXTT7=
EXTT8=
EXTT9=
PLAYORDER=
